HIERARCHY
ROOT pelvis
{
  OFFSET 0 100 0
  CHANNELS 6 Xposition Yposition Zposition Zrotation Xrotation Yrotation
  JOINT pelvis_right_femur
  {
    OFFSET -10.78128 -3.44521 -0.5502486
    CHANNELS 3 Zrotation Xrotation Yrotation
    JOINT right_femur_tibia
    {
      OFFSET -0.8047443 -44.0398 -0.1307829
      CHANNELS 3 Zrotation Xrotation Yrotation
      JOINT right_tibia_foot
      {
        OFFSET 3.006224 -47.83518 -5
        CHANNELS 3 Zrotation Xrotation Yrotation
        End Site
        {
          OFFSET 0 -5 15
        }
      }
    }
  }
  JOINT pelvis_left_femur
  {
    OFFSET 10.78128 -3.44521 -0.5502486
    CHANNELS 3 Zrotation Xrotation Yrotation
    JOINT left_femur_tibia
    {
      OFFSET 0.8047443 -44.0398 -0.1307829
      CHANNELS 3 Zrotation Xrotation Yrotation
      JOINT left_tibia_foot
      {
        OFFSET -4.370144 -48.10324 -4.275266
        CHANNELS 3 Zrotation Xrotation Yrotation
        End Site
        {
          OFFSET 0 -5 15
        }
      }
    }
  }
  JOINT pelvis_spine1
  {
    OFFSET 0 6.468898 -3.129235
    CHANNELS 3 Zrotation Xrotation Yrotation
    JOINT spine1
    {
      OFFSET 0 23.15396 4.99043
      CHANNELS 3 Zrotation Xrotation Yrotation
      JOINT spine2
      {
        OFFSET 0 20.79997 -5.064912
        CHANNELS 3 Zrotation Xrotation Yrotation
        JOINT neck
        {
          OFFSET 0 14.38658 9.616178
          CHANNELS 3 Zrotation Xrotation Yrotation
          End Site
          {
            OFFSET 0 20 0
          }
        }
      }
      JOINT right_manubrium
      {
        OFFSET -5.722621 16.35077 3.967754
        CHANNELS 3 Zrotation Xrotation Yrotation
        JOINT right_clavicle
        {
          OFFSET -13.16364 1.694482 -4.693211
          CHANNELS 3 Zrotation Xrotation Yrotation
          JOINT right_humerus
          {
            OFFSET -28.5034 -0.3100689 -2.792744
            CHANNELS 3 Zrotation Xrotation Yrotation
            JOINT right_radius
            {
              OFFSET -25.15693 0.02248979 -1.271978
              CHANNELS 3 Zrotation Xrotation Yrotation
              End Site
              {
                OFFSET -15 0 0
              }
            }
          }
        }
      }
      JOINT left_manubrium
      {
        OFFSET 5.722621 16.35077 3.967754
        CHANNELS 3 Zrotation Xrotation Yrotation
        JOINT left_clavicle
        {
          OFFSET 13.16364 1.694482 -4.693211
          CHANNELS 3 Zrotation Xrotation Yrotation
          JOINT left_humerus
          {
            OFFSET 29.39168 -1.063119 -2.237045
            CHANNELS 3 Zrotation Xrotation Yrotation
            JOINT left_radius
            {
              OFFSET 24.59957 -0.9528479 0.9047498
              CHANNELS 3 Zrotation Xrotation Yrotation
              End Site
              {
                OFFSET 15 -0 -0
              }
            }
          }
        }
      }
    }
  }
}
MOTION
Frames: 21
Frame Time: 0.0416666666667
0 103.5113 0 2.631524 0.6591568 0.09275266 2.191655 -15.49559 10.53705 -0 38.03276 -0 -4.354849 -18.92307 -2.978807 -9.086213 8.760823 -21.8639 -0 3.774194 -0 22.18015 -8.903894 29.81537 -2.778816 -2.255034 5.436828 2.63442 9.120695 -7.109054 0.9892916 20.90148 7.190619 4.322847 -25.75861 8.678467 6.269689 -19.30324 11.21239 83.30575 36.62397 -16.5547 -0 0 16.53808 -8.721722 8.584814 4.167106 7.023272 -20.98181 -0.6337337 -93.51444 21.61375 22.05844 0 0 -13.74529 13.03799 14.9164 -1.531251
0.295711 103.6211 1.651741 1.998571 1.343273 0.1672825 3.549337 -17.90364 11.42439 -0 38.35095 -0 -4.379089 -17.8802 -3.007763 -8.825421 8.527799 -21.69928 -0 4.377744 -0 22.68878 -9.390117 30.32484 -2.479556 -2.356698 5.23085 2.710166 9.282226 -7.488413 1.117342 20.51305 7.248722 4.221867 -26.09331 8.97923 6.016462 -19.16716 11.22908 84.37768 36.08049 -17.80598 -0 0 16.01921 -8.739032 9.047071 4.022238 7.375862 -21.2659 -0.4090608 -93.09126 21.35722 21.21062 0 0 -14.74241 13.20988 14.86137 -1.860075
0.6300881 103.6818 3.411575 1.200985 1.28921 0.2581207 4.786466 -20.23971 10.52604 -0 36.65142 -0 -5.034257 -15.35843 -2.470678 -8.172926 9.385191 -21.82414 -0 5.535776 -0 19.46774 -12.2417 29.55115 -2.428417 -2.269188 5.201741 2.697592 9.432179 -7.581555 1.089138 20.45492 7.194288 4.258734 -25.80654 8.732407 5.972805 -18.96586 11.28399 84.54911 35.87728 -18.03878 -0 0 15.60973 -9.083095 9.092386 4.223589 7.444476 -21.4865 -0.5335703 -92.5767 21.04095 20.48257 0 0 -15.407 13.08697 14.51113 -1.807546
0.9846442 103.6885 5.315789 0.6593564 1.308133 0.3373129 5.545116 -22.04182 9.659562 -0 34.73944 -0 -5.579362 -13.33444 -2.020162 -7.692715 9.991264 -21.69453 -0 6.405181 -0 16.94441 -14.35177 28.59427 -2.318793 -2.233988 5.098322 2.729353 9.562068 -7.75592 1.107129 20.32287 7.164801 4.234489 -25.71846 8.653904 5.874738 -18.77335 11.32612 84.96361 35.55524 -18.55378 -0 0 15.15046 -9.306021 9.247156 4.353359 7.550635 -21.68164 -0.5671774 -92.12242 20.8416 19.7594 0 0 -16.13865 12.9422 14.27113 -1.724302
1.352372 103.6036 7.456618 0.1710068 1.416613 0.4239196 6.144495 -23.9997 8.450438 -0 31.90425 -0 -6.248282 -10.94731 -1.402247 -7.240668 10.53352 -21.21582 -0 7.397368 -0 14.46228 -16.3385 27.2084 -2.230639 -2.208368 4.994379 2.769505 9.654642 -7.90602 1.1257 20.21861 7.140087 4.19903 -25.6725 8.609228 5.794414 -18.60973 11.35865 85.31706 35.27286 -18.998 -0 0 14.75883 -9.464735 9.380041 4.467167 7.618447 -21.81814 -0.5934526 -91.77069 20.73857 19.18539 0 0 -16.72908 12.76669 14.09581 -1.580916
1.723708 103.4149 9.90706 -0.2662307 1.6574 0.5320582 6.627805 -26.05309 7.17538 -0 28.61476 -0 -6.942898 -8.443428 -0.7392159 -6.833047 10.97179 -20.4444 -0 8.49942 -0 12.26208 -17.9958 25.58759 -2.142678 -2.193784 4.872004 2.823699 9.727409 -8.0624 1.151479 20.11508 7.120467 4.1472 -25.67382 8.603725 5.715441 -18.45151 11.38593 85.68786 34.98648 -19.46663 -0 0 14.37294 -9.577808 9.524631 4.568241 7.67286 -21.92593 -0.6059985 -91.4631 20.70273 18.66131 0 0 -17.28032 12.56048 13.96443 -1.390371
2.089347 103.1219 12.76186 -0.6804894 2.036033 0.6794261 7.049605 -28.20349 5.804904 -0 24.86666 -0 -7.707463 -5.711309 0.01433604 -6.449282 11.31244 -19.3357 -0 9.926229 -0 10.34932 -19.24469 23.6973 -2.05997 -2.186681 4.743039 2.884048 9.783709 -8.214998 1.18001 20.01765 7.105589 4.088602 -25.70273 8.62239 5.643345 -18.30281 11.40837 86.05 34.71525 -19.92715 -0 0 14.00842 -9.656631 9.670567 4.655663 7.716389 -22.01131 -0.6106191 -91.19707 20.70988 18.19261 0 0 -17.77832 12.34637 13.8673 -1.180803
2.437804 102.7469 16.11519 -1.07876 2.494184 0.8810794 7.423869 -30.22123 4.384636 -0 20.94333 -0 -8.539236 -2.852121 0.8164985 -6.064328 11.58014 -17.92779 -0 11.88815 -0 8.634347 -19.96208 21.53104 -1.981993 -2.182013 4.613127 2.945327 9.832404 -8.363033 1.20821 19.92511 7.093469 4.029917 -25.73799 8.648338 5.5774 -18.15869 11.42816 86.39999 34.4581 -20.37459 -0 0 13.65773 -9.722056 9.815166 4.735764 7.755138 -22.08802 -0.6142109 -90.95018 20.7307 17.75136 0 0 -18.24545 12.13455 13.78361 -0.9690263
2.756673 102.3467 20.05965 -1.469581 2.929311 1.142476 7.771555 -31.74895 2.93096 -0 17.18064 -0 -9.460223 0.01157617 1.631931 -5.64296 11.77319 -16.24952 -0 14.73032 -0 6.986456 -19.95342 19.04798 -1.912138 -2.174375 4.495137 2.999153 9.880456 -8.498237 1.231397 19.84101 7.082252 3.980458 -25.75575 8.662301 5.518944 -18.02174 11.44651 86.71671 34.22411 -20.78085 -0 0 13.33064 -9.793393 9.947608 4.81224 7.792696 -22.16604 -0.6238356 -90.71166 20.73405 17.33089 0 0 -18.68286 11.94396 13.69419 -0.7802313
3.035828 102.0256 24.6607 -1.862672 3.194296 1.446073 8.137294 -32.3127 1.529904 -0 14.07848 -0 -10.46446 2.601466 2.370352 -5.143789 11.83182 -14.37967 -0 18.86087 -0 5.254992 -18.9874 16.26645 -1.855976 -2.157092 4.404581 3.036592 9.933876 -8.609045 1.243833 19.77204 7.06902 3.94963 -25.72973 8.642038 5.469807 -17.89673 11.46472 86.97034 34.02367 -21.10704 -0 0 13.04189 -9.891162 10.05219 4.891706 7.828654 -22.25209 -0.648431 -90.4746 20.69186 16.93269 0 0 -19.08478 11.78885 13.57851 -0.6330054
3.274043 101.9382 29.92042 -2.262679 3.129032 1.735118 8.582131 -31.44192 0.3295457 -0 12.13015 -0 -11.50232 4.486748 2.902801 -4.536243 11.56317 -12.44517 -0 24.7011 -0 3.366728 -16.86215 13.32844 -1.821986 -2.122558 4.360857 3.047374 9.997025 -8.678824 1.238613 19.72903 7.050064 3.947604 -25.63139 8.562702 5.433214 -17.79241 11.48395 87.11845 33.87139 -21.29831 -0 0 12.81592 -10.03598 10.10697 4.982642 7.858221 -22.34822 -0.6986101 -90.23952 20.57975 16.5726 0 0 -19.43206 11.68086 13.41653 -0.5413958
3.48633 102.2599 35.72836 -2.645216 2.626367 1.905589 9.107375 -28.87203 -0.4989186 -0 11.53758 -0 -12.45087 5.121673 3.085292 -3.832595 10.57343 -10.63739 -0 32.46485 -0 1.386985 -13.59841 10.55339 -1.819956 -2.06246 4.382848 3.021428 10.07296 -8.68909 1.208675 19.72504 7.020728 3.983807 -25.43109 8.398523 5.413392 -17.71777 11.50563 87.11356 33.78056 -21.29368 -0 0 12.6793 -10.24942 10.08801 5.097994 7.872348 -22.45192 -0.7870723 -90.0099 20.38061 16.27226 0 0 -19.70017 11.62134 13.18898 -0.50644
3.703802 103.1113 41.83384 -2.915752 1.720707 1.832227 9.538018 -24.74259 -0.8786201 -0 11.84847 -0 -13.1456 4.0955 2.853854 -3.127958 8.282769 -9.167415 -0 41.81838 -0 -0.4783548 -9.661424 8.370249 -1.857711 -1.96882 4.483474 2.950014 10.16505 -8.624579 1.148809 19.77094 6.975757 4.065469 -25.10045 8.126462 5.414124 -17.67763 11.53178 86.91588 33.75589 -21.04108 -0 0 12.65129 -10.55576 9.977388 5.256327 7.861128 -22.55845 -0.9270097 -89.78467 20.084 16.04489 0 0 -19.87175 11.59844 12.87753 -0.5140124
3.954784 104.457 47.89676 -2.880668 0.6237748 1.450137 9.5158 -19.59037 -0.9018293 -0 11.96524 -0 -13.47164 1.575232 2.325057 -2.600281 4.183598 -8.153588 -0 51.51086 -0 -1.951284 -5.996517 7.13151 -1.936412 -1.836191 4.663626 2.827163 10.27863 -8.479724 1.058877 19.86896 6.91004 4.194881 -24.61883 7.733542 5.435496 -17.66948 11.56493 86.51108 33.78391 -20.51689 -0 0 12.73489 -10.9819 9.77366 5.481187 7.818765 -22.66302 -1.127468 -89.55164 19.686 15.88112 0 0 -19.95018 11.5866 12.46684 -0.5356315
4.230523 106.068 53.63737 -2.321656 -0.4141273 0.8433559 8.749451 -14.01195 -0.770693 -0 10.91934 -0 -13.43749 -1.426296 1.746178 -2.376976 -1.639836 -7.492712 -0 59.37463 -0 -2.767182 -3.604126 6.950612 -2.047711 -1.664953 4.911876 2.649763 10.42019 -8.260439 0.9464721 20.00881 6.820145 4.367144 -23.98389 7.226199 5.470524 -17.68828 11.60698 85.91866 33.83033 -19.73279 -0 0 12.9225 -11.551 9.496192 5.794582 7.747489 -22.75944 -1.386038 -89.29369 19.1905 15.75561 0 0 -19.95577 11.55565 11.95111 -0.5388875
4.47368 107.6103 58.9718 -1.24641 -1.356215 0.217801 7.397513 -8.329 -0.6241063 -0 8.869146 -0 -13.1484 -3.657375 1.255284 -2.289486 -8.194397 -6.86663 -0 63.06852 -0 -2.809004 -2.833489 7.735971 -2.176628 -1.463943 5.21146 2.416606 10.59245 -7.977892 0.8261619 20.17151 6.70653 4.570632 -23.22022 6.635606 5.506409 -17.73732 11.65729 85.18051 33.85319 -18.72095 -0 0 13.21669 -12.26849 9.176421 6.205013 7.65654 -22.83471 -1.684409 -89.0095 18.61402 15.65929 0 0 -19.89743 11.48702 11.34535 -0.5039402
4.630523 108.782 63.98442 -0.08200659 -2.372819 -0.2555182 6.099099 -2.735363 -0.4420522 -0 6.911952 -0 -12.71211 -4.917629 0.7739675 -1.85199 -14.11391 -5.968733 -0 61.24349 -0 -2.266788 -3.138071 9.304058 -2.309574 -1.249665 5.547831 2.128439 10.78811 -7.639573 0.7143665 20.33994 6.574874 4.791281 -22.37629 6.011439 5.533353 -17.8325 11.71181 84.33636 33.82938 -17.51084 -0 0 13.64315 -13.10873 8.841568 6.697919 7.556874 -22.86705 -1.992839 -88.72966 17.98883 15.62635 0 0 -19.74395 11.38718 10.6935 -0.4368385
4.723259 109.3851 68.80148 0.5847491 -3.47442 -0.5721501 5.440363 2.392591 -0.1642125 -0 5.818632 -0 -12.17818 -6.304896 0.2280762 -0.6918636 -18.63393 -4.792963 -0 54.1791 -0 -1.58015 -3.639607 11.32286 -2.440129 -1.041508 5.907829 1.791181 10.98948 -7.249167 0.623487 20.5064 6.43465 5.017087 -21.51038 5.406097 5.554072 -17.99006 11.76499 83.41219 33.77378 -16.12701 -0 0 14.2306 -14.01556 8.507592 7.238465 7.456686 -22.83402 -2.281126 -88.50469 17.35802 15.71684 0 0 -19.4342 11.28559 10.06311 -0.3679344
4.843152 109.3483 73.5381 0.4893667 -4.36932 -0.8733712 5.487211 6.644705 0.20133 -0 5.556514 -0 -11.57782 -8.832866 -0.2938154 1.0569 -21.80082 -3.631389 -0 43.60067 -0 -1.112078 -3.796182 13.31621 -2.56674 -0.8556873 6.27297 1.42042 11.17611 -6.817464 0.5593774 20.66934 6.295793 5.238457 -20.67647 4.860379 5.582091 -18.2082 11.81298 82.43518 33.72889 -14.61524 -0 0 14.97048 -14.91985 8.187417 7.785174 7.361517 -22.72752 -2.52742 -88.371 16.76266 15.96338 0 0 -18.92959 11.2164 9.522053 -0.3338748
5.07502 108.7263 78.31711 -0.1719287 -4.792863 -1.295418 5.865019 9.919902 0.6136006 -0 5.885682 -0 -10.94451 -12.30394 -0.6659209 2.862397 -23.92223 -2.80239 -0 32.01397 -0 -0.922474 -3.547337 14.93334 -2.686211 -0.7013039 6.617969 1.042041 11.33442 -6.37163 0.5221214 20.82445 6.166288 5.44529 -19.9178 4.398256 5.627823 -18.46206 11.85472 81.4558 33.72823 -13.06667 -0 0 15.79845 -15.76158 7.89936 8.302761 7.276385 -22.56219 -2.721201 -88.32742 16.23131 16.33572 0 0 -18.26196 11.19612 9.10925 -0.3532245
5.451986 107.6753 83.27893 -0.9571863 -4.779101 -1.870553 6.087236 12.47459 1.017314 -0 6.825779 -0 -10.27622 -15.56579 -0.8323116 4.136471 -25.18105 -2.502597 -0 21.79889 -0 -0.8833472 -3.121622 16.11385 -2.790926 -0.5803336 6.917969 0.6866247 11.46121 -5.951026 0.5077691 20.96148 6.05208 5.625958 -19.26614 4.029302 5.686725 -18.71623 11.89027 80.54962 33.76688 -11.6091 -0 0 16.61721 -16.50029 7.662153 8.765408 7.20637 -22.36949 -2.862482 -88.34242 15.77955 16.756 0 0 -17.5307 11.21501 8.822231 -0.4150382
